PathFileType	4	(X/Y/Z)	Patient4_TMGait_0pt3_03_right_28.trc.trc
DataRate	CameraRate	NumFrames	NumMarkers	Units	OrigDataRate	OrigDataStartFrame	OrigNumFrames
56.000000000000	56.000000000000	6	33	mm	56.000000000000	53	       141
Frame#	Time	Sacral			L.Shoulder			Chest			R.Shoulder			Neck			R.ASIS			L.ASIS			R.Thigh.Superior			R.Thigh.Lateral			R.Thigh.Inferior			R.Patella			L.Thigh.Superior			L.Thigh.Lateral			L.Thigh.Inferior			L.Patella			L.Shank.Superior			L.Shank.Lateral			L.Shank.Inferior			R.Shank.Superior			R.Shank.Lateral			R.Shank.Inferior			R.Heel			R.Midfoot.Superior			R.Midfoot.Lateral			R.Toe			L.Heel			L.Midfoot.Lateral			L.Midfoot.Superior			L.Toe			L.Elbow			L.Wrist			R.Elbow			R.Wrist			
		X1	Y1	Z1	X2	Y2	Z2	X3	Y3	Z3	X4	Y4	Z4	X5	Y5	Z5	X6	Y6	Z6	X7	Y7	Z7	X8	Y8	Z8	X9	Y9	Z9	X10	Y10	Z10	X11	Y11	Z11	X12	Y12	Z12	X13	Y13	Z13	X14	Y14	Z14	X15	Y15	Z15	X16	Y16	Z16	X17	Y17	Z17	X18	Y18	Z18	X19	Y19	Z19	X20	Y20	Z20	X21	Y21	Z21	X22	Y22	Z22	X23	Y23	Z23	X24	Y24	Z24	X25	Y25	Z25	X26	Y26	Z26	X27	Y27	Z27	X28	Y28	Z28	X29	Y29	Z29	X30	Y30	Z30	X31	Y31	Z31	X32	Y32	Z32	X33	Y33	Z33	

53	53.268571428571	671.959632159529	992.842426317587	592.790167868201	858.605438640329	1414.317803955058	401.770392270354	959.222542788937	1345.731124287146	563.504028222424	880.493917958927	1420.997302511915	738.305180540469	840.427910756981	1479.753295477869	558.493859604413	906.189957037113	923.281146602137	702.178851445730	881.140936182738	946.613567894869	429.204239220396	951.470266499560	725.565051819749	657.424567548571	874.284618418939	609.620368788084	708.453502940059	951.396626838264	563.709657305189	623.468328170659	951.791790155061	465.540656281355	625.554669458851	957.614493741091	754.989937334773	460.323982348116	906.559073485583	630.493585972052	381.586819210055	1002.917328732298	561.502976130640	448.127369260297	1008.127816069998	471.096970563830	437.419172817190	936.500467861759	411.042218618385	423.052556643877	792.536140308027	380.884794512808	370.717348373656	772.141168645647	248.455267245007	415.402406198588	899.323139147372	382.675733326878	629.280841939628	806.450353324677	294.918726308945	687.356688809136	824.126503421669	196.435189054390	621.123832342034	658.176767464822	50.296734861878	585.388236417556	829.738994867290	97.223600398922	631.123503763200	737.145205146076	40.780679702682	664.398572851103	945.080171405428	38.777878378775	667.388461155351	577.336146598605	189.181598120170	448.720346946665	633.412901348196	149.013300085460	364.449840259670	739.640732103710	152.252817579568	386.394565671418	814.062579768476	40.578985154819	346.943178732393	820.136477691760	1057.034505154772	299.189947345679	874.984446583764	801.867397236002	299.110785923952	893.298101459726	1068.943679987712	859.860051648061	1028.080689883274	846.454316968821	876.991176073573	
54	53.286428571429	670.791057078703	992.101590161639	595.538768451349	855.439218240431	1413.019016641133	401.997277735516	958.242692684361	1344.791648152882	562.494588372653	881.986239748590	1420.505616526426	738.279461742695	839.741202547811	1478.873487679377	558.681532853922	905.826439639568	922.138574244068	702.441544497916	878.125233737841	946.134309967714	429.833999095754	950.674056432900	724.463272639896	657.199802986754	873.891752540864	608.447286683607	708.424775109656	950.455627162541	562.634065981575	622.828445573616	950.587811429512	464.226662411327	624.614536352725	957.394032086197	757.417981527892	461.117794726684	908.927872454765	632.389337169595	381.899446826030	1006.492980898789	565.111212553693	448.367632330623	1013.733145653311	474.902058493628	437.173008637126	943.586901777665	413.421074080291	422.387192582359	800.092462032919	379.724506956739	370.978736882704	784.022200451401	246.401897295630	414.550107152872	897.341401395539	381.565963845904	628.608832909257	804.005057785271	294.604051726583	687.252149178165	820.241048703980	196.012864091137	620.911640737283	652.867853205611	50.854461555680	585.607547348425	824.459241445503	97.122328186184	630.999559271686	731.874963155221	41.055858461214	664.599007461993	939.767559144710	38.634902078715	667.448074825821	591.567054247033	180.668352497217	449.095811460513	647.956631498808	143.741927504165	363.586383903810	754.093371217671	150.032985882824	384.709521616121	831.601029241003	41.504382303877	342.628797125255	806.071351780585	1056.610483481337	301.460210106474	848.201083827488	799.148255202006	304.238301472645	904.963719093309	1069.367870251400	860.752810566447	1053.726982378346	855.680815978655	874.494155900156	
55	53.304285714286	669.637378229515	991.902280806560	598.010763161049	852.356368995633	1412.230806005913	402.119461759720	957.371144194457	1344.250177682033	561.277274615389	883.684347066432	1420.398982895649	738.046482833770	839.180061139486	1478.396652994523	558.770672291385	905.422058892653	921.302001069440	702.367222655456	875.137742298140	946.111942677431	430.142763138241	949.370417829267	723.520769662288	656.696036038130	872.806012475504	607.621205051075	708.316287520103	948.666082793511	561.724527945231	622.090938627738	948.434913072094	463.230795906535	623.659734486418	956.669849911346	759.946685445070	461.376475486685	910.239172482001	634.504369995907	381.766555525983	1008.858388622593	568.721691199139	447.960684816618	1018.100639336904	479.025425490558	436.418576271250	949.998348805476	415.997286665876	421.296161748194	807.705705301883	377.412613046864	370.464196252565	797.088335465128	243.332177228160	413.165029095855	894.590404540103	380.751900704484	627.951674467357	800.979972040915	294.413843178292	687.160583166817	816.041237500518	195.732711428722	620.728091932621	647.533325701460	51.363435736808	585.862979032095	819.110247466742	96.966983061970	630.809235964243	726.584700659976	41.295313883222	664.812351167647	934.436634738903	38.507628351312	667.503457430008	607.840275435488	169.594850160907	448.516234759059	664.979029671333	136.220472711978	362.075680201972	770.729065114302	146.558126867903	382.646929660988	852.253743192495	42.117472598825	338.545622640198	792.045829176245	1057.146583910784	303.529360520668	822.503200494076	798.226543973243	309.409116199258	916.785154166028	1070.559696201276	861.308174958004	1079.466476066252	866.984033272656	871.033341366693	
56	53.322142857143	668.506829660501	992.286372732345	600.196003199211	849.391656667489	1412.010067613075	402.148413502036	956.626658089202	1344.129634076785	559.856431291818	885.609688503004	1420.685482794026	737.610136828218	838.766731427331	1478.354576062471	558.789195382145	904.980078531980	920.814938634453	701.944563600037	872.187237571214	946.569858591335	430.114256243627	947.521355158224	722.759524013398	655.916259158637	870.973252968454	607.176079520492	708.140134895646	945.956903528942	561.003888528497	621.272409301107	945.252888153587	462.581014003075	622.725513702893	955.454768094251	762.551664526119	461.149100808251	910.516036764236	636.786125572315	381.218064889143	1010.009978034554	572.258791120271	446.983240393021	1021.209467415109	483.408419710109	435.244084370940	955.706405199603	418.767172951407	419.865013425514	815.492894209462	374.082998781565	369.168486365211	811.318833144089	239.516835179648	411.304932040947	891.000532566025	380.263495498151	627.343664382065	797.305053396793	294.361513255543	687.092898126035	811.490821349053	195.607130506810	620.582832816156	642.172781797249	51.806676104554	586.148937039469	813.698711761297	96.770734698357	630.571409827386	721.269631209506	41.491649296739	665.031316382192	929.083845946266	38.399556220670	667.553473640388	626.217434219739	156.541667742643	446.948027750243	684.521688860867	126.915780832647	359.954279851279	789.506103977918	142.145535428189	380.303575576994	875.789915738495	42.585730884506	334.940740215376	778.260367051168	1058.680535403582	305.429373539984	798.076652823815	798.962461902048	314.551333112222	928.746170247738	1072.518657238982	861.508356635494	1105.030816202027	880.392226673008	866.640537715909	
57	53.340000000000	667.417238262502	993.257753067798	602.085383611219	846.583160745228	1412.373619761223	402.086772659789	956.025939899480	1344.425071359913	558.236926011263	887.770632400957	1421.351318294315	736.968332320403	838.518369121310	1478.750712408366	558.748417127603	904.504201054807	920.696514435366	701.171838923878	869.282065916820	947.498240345990	429.743971691284	945.127384272305	722.191159083729	654.878812558019	868.386174325947	607.124417121632	707.904669488230	942.317912485027	560.485712831897	620.393090369189	941.028097326288	462.288001643266	621.842605111416	953.757334696468	765.184385133064	460.490481218045	909.783304674121	639.169725588397	380.289789753175	1009.946719278916	575.637816840394	445.527100994432	1023.046412434131	487.979222947948	433.749496595466	960.672230885203	421.724743771415	418.190690102178	823.539472759674	369.922423680877	367.137169214935	826.632199244231	235.278732198314	409.068227173017	886.559269689166	380.114632994776	626.813083590750	792.955008094876	294.457842596520	687.056175954626	806.579032242223	195.645031666401	620.483522946327	636.788227456266	52.178588590751	586.456138981746	808.240985392541	96.555209718722	630.315150074031	715.928513198046	41.644734486822	665.248043064214	923.708868495544	38.311714676112	667.596887735998	646.682518591610	142.167327995363	444.448589685540	706.534994776195	116.392612013296	357.325450098778	810.297282190124	137.190562613403	377.811429440413	901.872227538449	43.169936031194	332.050260512290	764.901572725748	1061.190895223438	307.189586813117	775.071530651207	801.174351300855	319.586649957426	940.813481253687	1075.216664625543	861.325345429618	1130.137407086645	895.875524130143	861.361058761218	
58	53.357857142857	666.393234992494	994.779027174907	603.671554945031	843.969678990372	1413.293994329988	401.928576852458	955.582413838330	1345.101515513694	556.425404083842	890.159544612250	1422.358905867453	736.114593105052	838.444314867461	1479.557327904050	558.640944239264	904.001787134445	920.937133158078	700.058119613550	866.434462664207	948.852509213644	429.037829487139	942.226694071647	721.812531281954	653.614857288148	865.081887019899	607.454132411116	707.614477518559	937.796566437150	560.170218506669	619.474759293097	935.808947089883	462.342105562444	621.033530188365	951.587065627508	767.771113490477	459.451281980493	908.071453816051	641.576748384265	379.017237122667	1008.679889585426	578.765793787966	443.686537478476	1023.612271024543	492.649829756709	432.033828630279	964.851702272753	424.853207831338	416.370895465679	831.883793496019	365.151056728162	364.463745061457	842.876980750426	230.959031303306	406.585879498991	881.307558361275	380.299288332616	626.378805829188	787.948455301514	294.706593555758	687.052890439533	801.319865847834	195.847714404435	620.434261657009	631.382866362761	52.481017222542	586.772744928880	802.760818434432	96.349574860623	630.079518673437	710.562858302026	41.759200273279	665.455208980545	918.313806083630	38.243481850857	667.632500391349	669.114810826731	127.159349927104	441.161064923271	730.852981109912	105.261109577029	354.353274942339	832.876454015296	132.122841043099	375.329343630134	930.057173706396	44.178298690345	330.088194041272	752.132172309409	1064.596514475667	308.829778572863	753.608432265733	804.641850997639	324.435724718001	952.938603605451	1078.597313333330	860.724540434234	1154.499792042780	913.340792293358	855.251139254913	
